# Blender v2.71 (sub 0) OBJ File: 'HW2_objects.blend'
# www.blender.org
o Cylinder.002_Cylinder.006
v 0.019135 0.613543 -0.046193
v 0.000000 0.613543 0.000002
v 0.000000 0.613543 -0.049998
v -0.019134 0.613543 -0.046193
v -0.035355 0.613543 -0.035354
v -0.046194 0.613543 -0.019133
v -0.050000 0.613543 0.000002
v -0.046194 0.613543 0.019136
v -0.035355 0.613543 0.035357
v -0.019134 0.613543 0.046195
v 0.000000 0.613543 0.050002
v 0.019135 0.613543 0.046195
v 0.035356 0.613543 0.035357
v 0.046194 0.613543 0.019136
v 0.050000 0.613543 0.000002
v 0.046194 0.613543 -0.019133
v 0.035356 0.613543 -0.035354
v 0.000001 -0.613543 0.000002
v 0.035356 0.460157 0.035358
v 0.046195 0.460157 0.019137
v -0.019134 0.460157 -0.046191
v -0.019134 0.306771 -0.046191
v -0.035355 0.306771 -0.035353
v 0.019135 0.306771 -0.046191
v -0.019134 0.460157 0.046197
v 0.000001 0.460157 0.050003
v 0.019135 0.306771 0.046197
v 0.035356 0.306771 0.035358
v 0.046194 0.153385 0.019137
v 0.046194 0.306771 0.019137
v 0.050000 0.153385 0.000003
v -0.046194 0.153385 -0.019132
v -0.050000 0.153385 0.000003
v -0.050000 0.306771 0.000003
v -0.046194 0.153385 0.019137
v 0.019135 0.153385 -0.046191
v 0.000000 0.153385 -0.049997
v -0.046194 0.306771 0.019137
v -0.035355 0.306771 0.035358
v -0.019134 0.153385 0.046197
v 0.000000 0.306771 -0.049997
v 0.050000 0.306771 0.000003
v 0.046194 0.153385 -0.019132
v -0.019134 0.306771 0.046197
v 0.046194 0.306771 -0.019132
v 0.000000 0.306771 0.050003
v 0.035356 0.306771 -0.035353
v 0.035356 0.153385 0.035358
v 0.035356 -0.000001 0.035358
v -0.019134 0.153385 -0.046192
v -0.035355 0.153385 -0.035353
v -0.035355 -0.000001 0.035358
v -0.035355 0.153385 0.035358
v 0.000001 -0.000001 0.050002
v 0.035356 -0.000001 -0.035353
v 0.000001 0.153385 0.050002
v 0.035356 0.153385 -0.035353
v 0.019135 0.153385 0.046197
v 0.046195 -0.000001 0.019136
v 0.050001 -0.153387 0.000002
v -0.019134 -0.000001 -0.046192
v -0.019134 -0.153387 -0.046192
v -0.035355 -0.153387 -0.035353
v -0.035355 -0.000001 -0.035353
v -0.046193 -0.000001 -0.019132
v -0.049999 -0.000001 0.000002
v 0.019135 -0.000001 -0.046192
v 0.019135 -0.153387 -0.046192
v -0.046193 -0.000001 0.019136
v -0.019134 -0.153387 0.046196
v 0.000001 -0.000001 -0.049998
v 0.050001 -0.000001 0.000002
v -0.019134 -0.000001 0.046196
v 0.046195 -0.000001 -0.019132
v 0.035356 -0.153387 -0.035353
v 0.019135 -0.153387 0.046196
v 0.019135 -0.000001 0.046196
v 0.035356 -0.153387 0.035357
v 0.035356 -0.306772 0.035357
v 0.046195 -0.306772 0.019136
v 0.046195 -0.153387 0.019136
v 0.050001 -0.306772 0.000002
v -0.019134 -0.306772 -0.046192
v -0.035355 -0.306772 -0.035353
v -0.046194 -0.306772 -0.019132
v -0.046194 -0.153387 -0.019132
v -0.050000 -0.306772 0.000002
v -0.050000 -0.153387 0.000002
v -0.046194 -0.306772 0.019136
v 0.000001 -0.306772 -0.049998
v -0.046194 -0.153387 0.019136
v -0.035355 -0.306772 0.035357
v -0.035355 -0.153387 0.035357
v -0.019134 -0.306772 0.046196
v 0.000001 -0.153387 -0.049998
v 0.046195 -0.153387 -0.019132
v 0.000001 -0.153387 0.050002
v 0.019135 -0.306772 0.046196
v 0.019135 -0.306772 -0.046192
v 0.019135 -0.460158 -0.046192
v 0.046195 -0.306772 -0.019132
v 0.000001 -0.306772 0.050002
v 0.035356 -0.306772 -0.035353
v 0.035356 -0.460158 0.035357
v 0.035356 -0.613544 0.035357
v 0.046194 -0.613544 0.019136
v 0.046194 -0.460158 0.019136
v 0.050000 -0.613544 0.000002
v -0.019134 -0.460158 -0.046192
v -0.019134 -0.613544 -0.046192
v -0.035355 -0.613544 -0.035354
v -0.035355 -0.460158 -0.035354
v -0.046194 -0.613544 -0.019132
v -0.046194 -0.460158 -0.019132
v -0.050000 -0.613544 0.000002
v -0.050000 -0.460158 0.000002
v -0.046194 -0.613544 0.019136
v 0.019135 -0.613544 -0.046192
v 0.000000 -0.613544 -0.049998
v -0.046194 -0.460158 0.019136
v -0.035355 -0.613544 0.035357
v -0.035355 -0.460158 0.035357
v -0.019134 -0.613544 0.046196
v 0.000000 -0.460158 -0.049998
v 0.050000 -0.460158 0.000002
v 0.046194 -0.613544 -0.019132
v -0.019134 -0.460158 0.046196
v 0.000000 -0.613544 0.050002
v 0.046194 -0.460158 -0.019132
v 0.035356 -0.613544 -0.035354
v 0.000000 -0.460158 0.050002
v 0.019135 -0.613544 0.046196
v 0.035356 -0.460158 -0.035354
v 0.019135 -0.460158 0.046196
v 0.050001 0.460157 0.000003
v -0.035355 0.460157 -0.035353
v -0.046193 0.460157 -0.019131
v -0.049999 0.460157 0.000003
v -0.046193 0.460157 0.019137
v 0.019135 0.460157 -0.046191
v 0.000001 0.460157 -0.049997
v -0.035355 0.460157 0.035358
v 0.046195 0.460157 -0.019131
v 0.035356 0.460157 -0.035353
v 0.019135 0.460157 0.046197
v -0.046194 0.306771 -0.019132
vn 0.000000 -1.000000 0.000000
vn -0.555600 0.000000 -0.831500
vn 0.980800 -0.000000 0.195100
vn -0.980800 -0.000000 -0.195100
vn -0.980800 0.000000 0.195100
vn 0.980800 -0.000000 -0.195100
vn 0.831500 -0.000000 0.555600
vn -0.831500 -0.000000 0.555600
vn -0.555600 -0.000000 0.831500
vn -0.195100 0.000000 -0.980800
vn -0.831500 0.000000 -0.555600
vn -0.195100 -0.000000 0.980800
vn 0.831500 0.000000 -0.555500
vn 0.195100 -0.000000 0.980800
vn 0.555600 0.000000 -0.831500
vn 0.555600 -0.000000 0.831500
vn 0.195100 0.000000 -0.980800
vn 0.831500 -0.000000 -0.555600
vn -0.195000 0.000000 -0.980800
vn -0.195000 -0.000000 0.980800
vn 0.195000 -0.000000 0.980800
vn -0.831500 -0.000000 0.555500
vn -0.555500 -0.000000 0.831500
vn 0.555500 -0.000000 0.831500
vn -0.831500 -0.000000 -0.555500
vn 0.195000 -0.000000 -0.980800
s off
f 1//1 2//1 3//1
f 3//1 2//1 4//1
f 4//1 2//1 5//1
f 5//1 2//1 6//1
f 2//1 7//1 6//1
f 7//1 2//1 8//1
f 8//1 2//1 9//1
f 9//1 2//1 10//1
f 10//1 2//1 11//1
f 11//1 2//1 12//1
f 12//1 2//1 13//1
f 13//1 2//1 14//1
f 2//1 15//1 14//1
f 15//1 2//1 16//1
f 16//1 2//1 17//1
f 2//1 1//1 17//1
f 21//2 22//2 23//2
f 30//3 29//3 31//3
f 33//4 34//4 32//4
f 34//5 33//5 35//5
f 42//6 31//6 43//6
f 61//2 62//2 63//2
f 78//7 79//7 80//7
f 81//3 80//3 82//3
f 86//4 85//4 87//4
f 88//5 87//5 89//5
f 91//8 89//8 92//8
f 93//9 92//9 94//9
f 95//10 90//10 83//10
f 104//7 105//7 106//7
f 107//3 106//3 108//3
f 109//2 110//2 111//2
f 112//11 111//11 113//11
f 114//4 113//4 115//4
f 116//5 115//5 117//5
f 120//8 117//8 121//8
f 122//9 121//9 123//9
f 124//10 119//10 110//10
f 125//6 108//6 126//6
f 127//12 123//12 128//12
f 129//13 126//13 130//13
f 131//14 128//14 132//14
f 133//15 130//15 118//15
f 134//16 132//16 105//16
f 30//7 28//7 29//7
f 42//3 30//3 31//3
f 38//5 34//5 35//5
f 44//9 39//9 40//9
f 45//6 42//6 43//6
f 48//16 58//16 49//16
f 72//3 59//3 60//3
f 64//2 61//2 63//2
f 34//4 146//4 32//4
f 81//7 78//7 80//7
f 88//4 86//4 87//4
f 91//5 88//5 89//5
f 93//8 91//8 92//8
f 99//15 103//15 100//15
f 107//7 104//7 106//7
f 125//3 107//3 108//3
f 112//2 109//2 111//2
f 114//11 112//11 113//11
f 116//4 114//4 115//4
f 120//5 116//5 117//5
f 122//8 120//8 121//8
f 127//9 122//9 123//9
f 109//10 124//10 110//10
f 129//6 125//6 126//6
f 131//12 127//12 128//12
f 133//13 129//13 130//13
f 134//14 131//14 132//14
f 104//16 134//16 105//16
f 62//10 61//10 71//10
f 118//1 18//1 119//1
f 119//1 18//1 110//1
f 110//1 18//1 111//1
f 111//1 18//1 113//1
f 18//1 115//1 113//1
f 115//1 18//1 117//1
f 117//1 18//1 121//1
f 121//1 18//1 123//1
f 123//1 18//1 128//1
f 128//1 18//1 132//1
f 132//1 18//1 105//1
f 105//1 18//1 106//1
f 18//1 108//1 106//1
f 108//1 18//1 126//1
f 126//1 18//1 130//1
f 130//1 18//1 118//1
f 19//7 28//7 30//7
f 20//3 30//3 42//3
f 136//11 23//11 146//11
f 137//4 146//4 34//4
f 138//5 34//5 38//5
f 140//17 24//17 41//17
f 139//8 38//8 39//8
f 142//9 39//9 44//9
f 22//10 21//10 41//10
f 135//6 42//6 45//6
f 25//12 44//12 46//12
f 143//18 45//18 47//18
f 26//14 46//14 27//14
f 144//15 47//15 24//15
f 145//16 27//16 28//16
f 28//7 48//7 29//7
f 22//2 50//2 51//2
f 23//11 51//11 32//11
f 24//17 36//17 37//17
f 38//8 35//8 53//8
f 39//9 53//9 40//9
f 41//19 37//19 50//19
f 44//20 40//20 56//20
f 45//18 43//18 57//18
f 46//21 56//21 58//21
f 47//15 57//15 36//15
f 27//16 58//16 48//16
f 48//7 49//7 59//7
f 29//3 59//3 72//3
f 50//2 61//2 64//2
f 51//11 64//11 65//11
f 32//4 65//4 66//4
f 33//5 66//5 69//5
f 36//17 67//17 71//17
f 35//22 69//22 52//22
f 53//23 52//23 73//23
f 37//10 71//10 61//10
f 31//6 72//6 74//6
f 40//12 73//12 54//12
f 43//18 74//18 55//18
f 56//14 54//14 77//14
f 57//15 55//15 67//15
f 58//24 77//24 49//24
f 49//7 78//7 81//7
f 59//3 81//3 60//3
f 64//11 63//11 86//11
f 65//4 86//4 88//4
f 66//5 88//5 91//5
f 67//17 68//17 95//17
f 69//8 91//8 93//8
f 52//9 93//9 70//9
f 95//10 62//10 71//10
f 72//6 60//6 96//6
f 73//12 70//12 97//12
f 74//18 96//18 75//18
f 54//14 97//14 76//14
f 55//15 75//15 68//15
f 77//16 76//16 78//16
f 62//2 83//2 84//2
f 63//11 84//11 85//11
f 68//17 99//17 90//17
f 60//6 82//6 101//6
f 70//12 94//12 102//12
f 96//18 101//18 103//18
f 97//14 102//14 98//14
f 75//15 103//15 99//15
f 76//16 98//16 79//16
f 79//7 104//7 107//7
f 80//3 107//3 125//3
f 83//2 109//2 112//2
f 84//11 112//11 114//11
f 85//4 114//4 116//4
f 87//5 116//5 120//5
f 99//17 100//17 124//17
f 89//8 120//8 122//8
f 92//9 122//9 127//9
f 90//10 124//10 109//10
f 82//6 125//6 129//6
f 94//12 127//12 131//12
f 101//13 129//13 133//13
f 102//14 131//14 134//14
f 103//15 133//15 100//15
f 98//16 134//16 104//16
f 100//17 118//17 119//17
f 13//7 19//7 20//7
f 14//3 20//3 135//3
f 4//2 21//2 136//2
f 5//25 136//25 137//25
f 6//4 137//4 138//4
f 7//5 138//5 139//5
f 1//17 140//17 141//17
f 8//8 139//8 142//8
f 9//9 142//9 25//9
f 3//10 141//10 21//10
f 15//6 135//6 143//6
f 10//12 25//12 26//12
f 16//18 143//18 144//18
f 11//14 26//14 145//14
f 17//15 144//15 140//15
f 12//16 145//16 19//16
f 20//7 19//7 30//7
f 135//3 20//3 42//3
f 136//2 21//2 23//2
f 137//25 136//25 146//25
f 138//4 137//4 34//4
f 139//5 138//5 38//5
f 141//17 140//17 41//17
f 142//8 139//8 39//8
f 25//9 142//9 44//9
f 143//6 135//6 45//6
f 26//12 25//12 46//12
f 144//18 143//18 47//18
f 145//14 26//14 27//14
f 140//15 144//15 24//15
f 19//16 145//16 28//16
f 23//2 22//2 51//2
f 146//11 23//11 32//11
f 21//10 141//10 41//10
f 41//17 24//17 37//17
f 39//8 38//8 53//8
f 22//10 41//10 50//10
f 46//12 44//12 56//12
f 47//18 45//18 57//18
f 27//14 46//14 58//14
f 24//15 47//15 36//15
f 28//16 27//16 48//16
f 29//7 48//7 59//7
f 31//3 29//3 72//3
f 51//2 50//2 64//2
f 32//11 51//11 65//11
f 33//4 32//4 66//4
f 35//5 33//5 69//5
f 37//17 36//17 71//17
f 53//8 35//8 52//8
f 40//9 53//9 73//9
f 50//19 37//19 61//19
f 43//6 31//6 74//6
f 56//20 40//20 54//20
f 57//18 43//18 55//18
f 58//21 56//21 77//21
f 36//15 57//15 67//15
f 59//7 49//7 81//7
f 65//11 64//11 86//11
f 66//4 65//4 88//4
f 69//5 66//5 91//5
f 71//17 67//17 95//17
f 52//22 69//22 93//22
f 73//23 52//23 70//23
f 74//6 72//6 96//6
f 54//12 73//12 97//12
f 55//18 74//18 75//18
f 77//14 54//14 76//14
f 67//15 55//15 68//15
f 49//24 77//24 78//24
f 60//3 81//3 82//3
f 63//2 62//2 84//2
f 86//11 63//11 85//11
f 95//17 68//17 90//17
f 70//9 93//9 94//9
f 62//10 95//10 83//10
f 96//6 60//6 101//6
f 97//12 70//12 102//12
f 75//18 96//18 103//18
f 76//14 97//14 98//14
f 68//15 75//15 99//15
f 78//16 76//16 79//16
f 80//7 79//7 107//7
f 82//3 80//3 125//3
f 84//2 83//2 112//2
f 85//11 84//11 114//11
f 87//4 85//4 116//4
f 89//5 87//5 120//5
f 90//17 99//17 124//17
f 92//8 89//8 122//8
f 94//9 92//9 127//9
f 83//10 90//10 109//10
f 101//6 82//6 129//6
f 102//12 94//12 131//12
f 103//18 101//18 133//18
f 98//14 102//14 134//14
f 79//16 98//16 104//16
f 124//17 100//17 119//17
f 100//15 133//15 118//15
f 14//7 13//7 20//7
f 15//3 14//3 135//3
f 5//2 4//2 136//2
f 6//11 5//11 137//11
f 7//4 6//4 138//4
f 8//5 7//5 139//5
f 3//26 1//26 141//26
f 9//8 8//8 142//8
f 10//9 9//9 25//9
f 4//19 3//19 21//19
f 16//6 15//6 143//6
f 11//12 10//12 26//12
f 17//18 16//18 144//18
f 12//14 11//14 145//14
f 1//15 17//15 140//15
f 13//16 12//16 19//16
