# Blender v2.71 (sub 0) OBJ File: 'HW2_objects.blend'
# www.blender.org
o Circle
v 0.000000 0.000000 -0.218321
v 0.000000 0.415027 -0.218321
v -0.158824 0.383435 -0.218321
v -0.293468 0.293469 -0.218321
v -0.383435 0.158824 -0.218321
v -0.415027 0.000000 -0.218321
v -0.383435 -0.158824 -0.218321
v -0.293468 -0.293468 -0.218321
v -0.158824 -0.383435 -0.218321
v -0.000000 -0.415027 -0.218321
v 0.158824 -0.383435 -0.218321
v 0.293468 -0.293468 -0.218321
v 0.383435 -0.158824 -0.218321
v 0.415027 0.000000 -0.218321
v 0.383435 0.158824 -0.218321
v 0.293468 0.293469 -0.218321
v 0.158824 0.383435 -0.218321
v 0.000000 -0.000000 0.218321
v 0.000000 0.415027 0.218321
v -0.158824 0.383435 0.218321
v -0.293468 0.293468 0.218321
v -0.383435 0.158824 0.218321
v -0.415027 -0.000000 0.218321
v -0.383435 -0.158824 0.218321
v -0.293468 -0.293469 0.218321
v -0.158824 -0.383435 0.218321
v -0.000000 -0.415027 0.218321
v 0.158824 -0.383435 0.218321
v 0.293468 -0.293469 0.218321
v 0.383435 -0.158824 0.218321
v 0.415027 -0.000000 0.218321
v 0.383435 0.158824 0.218321
v 0.293468 0.293468 0.218321
v 0.158824 0.383435 0.218321
vn -0.000000 0.000000 -1.000000
vn 0.000000 -0.000000 1.000000
vn -0.831500 0.555600 0.000000
vn 0.831500 0.555600 0.000000
vn -0.555600 0.831500 0.000000
vn 0.980800 0.195100 0.000000
vn 0.980800 -0.195100 -0.000000
vn 0.831500 -0.555600 -0.000000
vn 0.555600 -0.831500 -0.000000
vn 0.195100 -0.980800 -0.000000
vn -0.195100 -0.980800 -0.000000
vn -0.555600 -0.831500 -0.000000
vn -0.195100 0.980800 0.000000
vn -0.831500 -0.555600 -0.000000
vn -0.980800 -0.195100 -0.000000
vn 0.195100 0.980800 0.000000
vn -0.980800 0.195100 0.000000
vn 0.555600 0.831500 0.000000
s off
f 1//1 3//1 2//1
f 1//1 4//1 3//1
f 1//1 5//1 4//1
f 1//1 6//1 5//1
f 1//1 7//1 6//1
f 1//1 8//1 7//1
f 1//1 9//1 8//1
f 1//1 10//1 9//1
f 1//1 11//1 10//1
f 1//1 12//1 11//1
f 1//1 13//1 12//1
f 1//1 14//1 13//1
f 1//1 15//1 14//1
f 1//1 16//1 15//1
f 1//1 17//1 16//1
f 1//1 2//1 17//1
f 18//2 19//2 20//2
f 18//2 20//2 21//2
f 18//2 21//2 22//2
f 18//2 22//2 23//2
f 18//2 23//2 24//2
f 18//2 24//2 25//2
f 18//2 25//2 26//2
f 18//2 26//2 27//2
f 18//2 27//2 28//2
f 18//2 28//2 29//2
f 18//2 29//2 30//2
f 18//2 30//2 31//2
f 18//2 31//2 32//2
f 18//2 32//2 33//2
f 18//2 33//2 34//2
f 18//2 34//2 19//2
f 5//3 22//3 21//3
f 16//4 33//4 32//4
f 4//5 21//5 20//5
f 15//6 32//6 31//6
f 14//7 31//7 30//7
f 13//8 30//8 29//8
f 12//9 29//9 28//9
f 11//10 28//10 27//10
f 10//11 27//11 26//11
f 9//12 26//12 25//12
f 3//13 20//13 19//13
f 8//14 25//14 24//14
f 6//15 7//15 24//15
f 2//16 19//16 34//16
f 5//17 6//17 23//17
f 17//18 34//18 33//18
f 4//3 5//3 21//3
f 15//4 16//4 32//4
f 3//5 4//5 20//5
f 14//6 15//6 31//6
f 13//7 14//7 30//7
f 12//8 13//8 29//8
f 11//9 12//9 28//9
f 10//10 11//10 27//10
f 9//11 10//11 26//11
f 8//12 9//12 25//12
f 2//13 3//13 19//13
f 7//14 8//14 24//14
f 23//15 6//15 24//15
f 17//16 2//16 34//16
f 22//17 5//17 23//17
f 16//18 17//18 33//18
