# Blender v2.71 (sub 0) OBJ File: 'HW2_objects.blend'
# www.blender.org
o Cylinder.001_Cylinder.000
v -0.000000 -0.164070 -0.050000
v -0.019134 -0.164070 -0.046194
v -0.035355 -0.164070 -0.035355
v -0.046194 -0.164070 -0.019134
v -0.050000 -0.164070 0.000000
v -0.046194 -0.164070 0.019134
v -0.035355 -0.164070 0.035356
v -0.019134 -0.164070 0.046194
v -0.000000 -0.164070 0.050000
v 0.019134 -0.164070 0.046194
v 0.035355 -0.164070 0.035356
v 0.046194 -0.164070 0.019134
v 0.050000 -0.164070 0.000000
v 0.046194 -0.164070 -0.019134
v 0.035355 -0.164070 -0.035355
v 0.019134 -0.164070 -0.046194
v -0.000000 -0.081515 -0.050000
v -0.019134 -0.081515 -0.046194
v -0.035355 -0.081515 -0.035355
v -0.046194 -0.081515 -0.019134
v -0.050000 -0.081515 0.000000
v -0.046194 -0.081515 0.019134
v -0.035355 -0.081515 0.035356
v -0.019134 -0.081515 0.046194
v -0.000000 -0.081515 0.050000
v 0.019134 -0.081515 0.046194
v 0.035355 -0.081515 0.035356
v 0.046194 -0.081515 0.019134
v 0.050000 -0.081515 0.000000
v 0.046194 -0.081515 -0.019134
v 0.035355 -0.081515 -0.035355
v 0.019134 -0.081515 -0.046194
v -0.000000 0.001040 -0.050000
v -0.019134 0.001040 -0.046194
v -0.035355 0.001040 -0.035355
v -0.046194 0.001040 -0.019134
v -0.050000 0.001040 0.000000
v -0.046194 0.001040 0.019134
v -0.035355 0.001040 0.035356
v -0.019134 0.001040 0.046194
v -0.000000 0.001040 0.050000
v 0.019134 0.001040 0.046194
v 0.035355 0.001040 0.035356
v 0.046194 0.001040 0.019134
v 0.050000 0.001040 0.000000
v 0.046194 0.001040 -0.019134
v 0.035355 0.001040 -0.035355
v 0.019134 0.001040 -0.046194
v 0.000000 0.083595 -0.050000
v -0.019134 0.083595 -0.046194
v -0.035355 0.083595 -0.035355
v -0.046194 0.083595 -0.019134
v -0.050000 0.083596 -0.000000
v -0.046194 0.083595 0.019134
v -0.035355 0.083595 0.035355
v -0.019134 0.083595 0.046194
v 0.000000 0.083595 0.050000
v 0.019134 0.083595 0.046194
v 0.035355 0.083595 0.035355
v 0.046194 0.083595 0.019134
v 0.050000 0.083595 -0.000000
v 0.046194 0.083595 -0.019134
v 0.035355 0.083595 -0.035355
v 0.019134 0.083595 -0.046194
v 0.000000 0.166150 -0.050000
v -0.019134 0.166150 -0.046194
v -0.035355 0.166150 -0.035356
v -0.046194 0.166150 -0.019134
v -0.050000 0.166150 -0.000000
v -0.046194 0.166150 0.019134
v -0.035355 0.166150 0.035355
v -0.019134 0.166150 0.046194
v 0.000000 0.166150 0.050000
v 0.019134 0.166150 0.046194
v 0.035356 0.166150 0.035355
v 0.046194 0.166150 0.019134
v 0.050000 0.166150 -0.000000
v 0.046194 0.166150 -0.019134
v 0.035356 0.166150 -0.035356
v 0.019134 0.166150 -0.046194
v 0.000000 0.248705 -0.050000
v -0.019134 0.248705 -0.046194
v -0.035355 0.248705 -0.035356
v -0.046194 0.248705 -0.019135
v -0.050000 0.248705 -0.000000
v -0.046194 0.248705 0.019134
v -0.035355 0.248705 0.035355
v -0.019134 0.248705 0.046194
v 0.000000 0.248705 0.050000
v 0.019135 0.248705 0.046194
v 0.035356 0.248705 0.035355
v 0.046194 0.248705 0.019134
v 0.050000 0.248705 -0.000000
v 0.046194 0.248705 -0.019135
v 0.035356 0.248705 -0.035356
v 0.019135 0.248705 -0.046194
v 0.000001 0.331260 -0.050001
v -0.019134 0.331260 -0.046195
v -0.035355 0.331260 -0.035356
v -0.046193 0.331260 -0.019135
v -0.049999 0.331260 -0.000001
v -0.046193 0.331260 0.019133
v -0.035355 0.331260 0.035355
v -0.019134 0.331260 0.046193
v 0.000001 0.331260 0.049999
v 0.019135 0.331260 0.046193
v 0.035356 0.331260 0.035355
v 0.046195 0.331260 0.019133
v 0.050001 0.331260 -0.000001
v 0.046195 0.331260 -0.019135
v 0.035356 0.331260 -0.035356
v 0.019135 0.331260 -0.046195
v -0.000001 -0.329180 -0.050000
v -0.019135 -0.329180 -0.046194
v -0.035356 -0.329180 -0.035355
v -0.046195 -0.329180 -0.019134
v -0.050001 -0.329180 0.000000
v -0.000001 -0.481087 0.000000
v -0.046195 -0.329180 0.019135
v -0.035356 -0.329180 0.035356
v -0.019135 -0.329180 0.046194
v -0.000001 -0.329180 0.050000
v 0.019134 -0.329180 0.046194
v 0.035355 -0.329180 0.035356
v 0.046193 -0.329180 0.019135
v 0.049999 -0.329180 0.000000
v 0.046193 -0.329180 -0.019134
v 0.035355 -0.329180 -0.035355
v 0.019134 -0.329180 -0.046194
v -0.000000 -0.246625 -0.050000
v -0.019135 -0.246624 -0.046194
v -0.035356 -0.246624 -0.035355
v -0.046194 -0.246624 -0.019134
v -0.050000 -0.246624 0.000000
v -0.046194 -0.246624 0.019135
v -0.035356 -0.246624 0.035356
v -0.019135 -0.246624 0.046194
v -0.000000 -0.246625 0.050000
v 0.019134 -0.246625 0.046194
v 0.035355 -0.246625 0.035356
v 0.046194 -0.246625 0.019135
v 0.050000 -0.246625 0.000000
v 0.046194 -0.246625 -0.019134
v 0.035355 -0.246625 -0.035355
v 0.019134 -0.246625 -0.046194
v 0.000001 0.331260 -0.000001
vn -0.831500 0.000000 0.555600
vn -0.980800 0.000000 0.195100
vn 0.555600 -0.000000 -0.831500
vn 0.831500 -0.000000 -0.555600
vn 0.980800 -0.000000 -0.195100
vn 0.980800 -0.000000 0.195100
vn -0.195100 0.000000 -0.980800
vn 0.831500 -0.000000 0.555600
vn 0.555600 -0.000000 0.831500
vn 0.195100 -0.000000 -0.980800
vn -0.980800 0.000000 -0.195100
vn 0.195100 -0.000000 0.980800
vn -0.831500 0.000000 -0.555600
vn -0.195100 0.000000 0.980800
vn -0.555600 0.000000 -0.831500
vn -0.555600 0.000000 0.831500
vn 0.528700 -0.307200 -0.791300
vn -0.185700 -0.307200 -0.933400
vn 0.791300 -0.307200 -0.528700
vn 0.933400 -0.307200 -0.185700
vn 0.933400 -0.307200 0.185700
vn 0.791300 -0.307200 0.528700
vn 0.528700 -0.307200 0.791300
vn 0.185700 -0.307200 0.933400
vn -0.185700 -0.307200 0.933400
vn -0.528700 -0.307200 0.791300
vn -0.791300 -0.307200 0.528700
vn -0.933400 -0.307200 0.185700
vn -0.933400 -0.307200 -0.185700
vn -0.791300 -0.307200 -0.528700
vn 0.185700 -0.307200 -0.933400
vn -0.528700 -0.307200 -0.791300
vn 0.000000 1.000000 0.000000
s off
f 7//1 23//1 22//1
f 6//2 22//2 21//2
f 16//3 32//3 31//3
f 15//4 31//4 30//4
f 30//5 29//5 14//5
f 29//6 28//6 13//6
f 17//7 1//7 18//7
f 12//8 28//8 27//8
f 11//9 27//9 26//9
f 1//10 17//10 32//10
f 5//11 21//11 20//11
f 25//12 9//12 26//12
f 20//13 19//13 4//13
f 9//14 25//14 24//14
f 3//15 19//15 18//15
f 8//16 24//16 23//16
f 128//17 118//17 129//17
f 113//18 118//18 114//18
f 127//19 118//19 128//19
f 126//20 118//20 127//20
f 125//21 118//21 126//21
f 124//22 118//22 125//22
f 123//23 118//23 124//23
f 122//24 118//24 123//24
f 121//25 118//25 122//25
f 120//26 118//26 121//26
f 119//27 118//27 120//27
f 117//28 118//28 119//28
f 116//29 118//29 117//29
f 115//30 118//30 116//30
f 129//31 118//31 113//31
f 114//32 118//32 115//32
f 120//1 136//1 135//1
f 119//2 135//2 134//2
f 129//3 145//3 144//3
f 128//4 144//4 143//4
f 127//5 143//5 142//5
f 126//6 142//6 141//6
f 114//7 131//7 130//7
f 125//8 141//8 140//8
f 124//9 140//9 139//9
f 145//10 129//10 130//10
f 117//11 134//11 133//11
f 123//12 139//12 138//12
f 132//13 115//13 133//13
f 122//14 138//14 137//14
f 115//15 132//15 131//15
f 121//16 137//16 136//16
f 98//33 146//33 97//33
f 97//33 146//33 112//33
f 112//33 146//33 111//33
f 111//33 146//33 110//33
f 146//33 109//33 110//33
f 109//33 146//33 108//33
f 108//33 146//33 107//33
f 107//33 146//33 106//33
f 106//33 146//33 105//33
f 105//33 146//33 104//33
f 104//33 146//33 103//33
f 103//33 146//33 102//33
f 146//33 101//33 102//33
f 101//33 146//33 100//33
f 100//33 146//33 99//33
f 99//33 146//33 98//33
f 6//1 7//1 22//1
f 5//2 6//2 21//2
f 15//3 16//3 31//3
f 14//4 15//4 30//4
f 28//6 12//6 13//6
f 9//12 10//12 26//12
f 11//8 12//8 27//8
f 10//9 11//9 26//9
f 16//10 1//10 32//10
f 4//11 5//11 20//11
f 8//14 9//14 24//14
f 2//15 3//15 18//15
f 7//16 8//16 23//16
f 29//5 13//5 14//5
f 1//7 2//7 18//7
f 129//10 113//10 130//10
f 119//1 120//1 135//1
f 117//2 119//2 134//2
f 128//3 129//3 144//3
f 127//4 128//4 143//4
f 126//5 127//5 142//5
f 125//6 126//6 141//6
f 113//7 114//7 130//7
f 124//8 125//8 140//8
f 123//9 124//9 139//9
f 116//11 117//11 133//11
f 122//12 123//12 138//12
f 19//13 3//13 4//13
f 121//14 122//14 137//14
f 114//15 115//15 131//15
f 120//16 121//16 136//16
f 115//13 116//13 133//13
f 136//1 7//1 6//1
f 135//2 6//2 5//2
f 145//3 16//3 15//3
f 144//4 15//4 14//4
f 143//5 14//5 13//5
f 142//6 13//6 12//6
f 131//7 2//7 1//7
f 141//8 12//8 11//8
f 140//9 11//9 10//9
f 16//10 145//10 1//10
f 134//11 5//11 4//11
f 139//12 10//12 9//12
f 3//13 132//13 4//13
f 138//14 9//14 8//14
f 132//15 3//15 2//15
f 137//16 8//16 7//16
f 23//1 39//1 38//1
f 22//2 38//2 37//2
f 32//3 48//3 47//3
f 47//4 46//4 31//4
f 30//5 46//5 45//5
f 29//6 45//6 44//6
f 33//7 17//7 34//7
f 44//8 43//8 28//8
f 27//9 43//9 42//9
f 48//10 32//10 33//10
f 21//11 37//11 36//11
f 41//12 25//12 42//12
f 36//13 35//13 20//13
f 25//14 41//14 40//14
f 19//15 35//15 34//15
f 24//16 40//16 39//16
f 39//1 55//1 54//1
f 38//2 54//2 53//2
f 48//3 64//3 63//3
f 47//4 63//4 62//4
f 62//5 61//5 46//5
f 45//6 61//6 60//6
f 34//7 50//7 49//7
f 44//8 60//8 59//8
f 43//9 59//9 58//9
f 33//10 49//10 64//10
f 37//11 53//11 52//11
f 42//12 58//12 57//12
f 36//13 52//13 51//13
f 41//14 57//14 56//14
f 35//15 51//15 50//15
f 40//16 56//16 55//16
f 55//1 71//1 70//1
f 54//2 70//2 69//2
f 64//3 80//3 79//3
f 63//4 79//4 78//4
f 62//5 78//5 77//5
f 61//6 77//6 76//6
f 50//7 66//7 65//7
f 60//8 76//8 75//8
f 59//9 75//9 74//9
f 49//10 65//10 80//10
f 53//11 69//11 68//11
f 58//12 74//12 73//12
f 52//13 68//13 67//13
f 57//14 73//14 72//14
f 51//15 67//15 66//15
f 56//16 72//16 71//16
f 71//1 87//1 86//1
f 70//2 86//2 85//2
f 80//3 96//3 95//3
f 79//4 95//4 94//4
f 78//5 94//5 93//5
f 77//6 93//6 92//6
f 66//7 82//7 81//7
f 91//8 75//8 92//8
f 75//9 91//9 90//9
f 65//10 81//10 96//10
f 69//11 85//11 84//11
f 74//12 90//12 89//12
f 68//13 84//13 83//13
f 73//14 89//14 88//14
f 67//15 83//15 82//15
f 72//16 88//16 87//16
f 87//1 103//1 102//1
f 86//2 102//2 101//2
f 96//3 112//3 111//3
f 95//4 111//4 110//4
f 94//5 110//5 109//5
f 93//6 109//6 108//6
f 82//7 98//7 97//7
f 92//8 108//8 107//8
f 91//9 107//9 106//9
f 81//10 97//10 112//10
f 85//11 101//11 100//11
f 90//12 106//12 105//12
f 84//13 100//13 99//13
f 89//14 105//14 104//14
f 83//15 99//15 98//15
f 88//16 104//16 103//16
f 135//1 136//1 6//1
f 134//2 135//2 5//2
f 144//3 145//3 15//3
f 143//4 144//4 14//4
f 142//5 143//5 13//5
f 141//6 142//6 12//6
f 130//7 131//7 1//7
f 140//8 141//8 11//8
f 139//9 140//9 10//9
f 25//12 26//12 42//12
f 133//11 134//11 4//11
f 138//12 139//12 9//12
f 46//4 30//4 31//4
f 137//14 138//14 8//14
f 131//15 132//15 2//15
f 136//16 137//16 7//16
f 43//8 27//8 28//8
f 132//13 133//13 4//13
f 145//10 130//10 1//10
f 22//1 23//1 38//1
f 21//2 22//2 37//2
f 31//3 32//3 47//3
f 29//5 30//5 45//5
f 28//6 29//6 44//6
f 75//8 76//8 92//8
f 35//13 19//13 20//13
f 26//9 27//9 42//9
f 17//7 18//7 34//7
f 20//11 21//11 36//11
f 32//10 17//10 33//10
f 24//14 25//14 40//14
f 18//15 19//15 34//15
f 23//16 24//16 39//16
f 38//1 39//1 54//1
f 37//2 38//2 53//2
f 47//3 48//3 63//3
f 46//4 47//4 62//4
f 44//6 45//6 60//6
f 33//7 34//7 49//7
f 43//8 44//8 59//8
f 42//9 43//9 58//9
f 48//10 33//10 64//10
f 36//11 37//11 52//11
f 41//12 42//12 57//12
f 35//13 36//13 51//13
f 40//14 41//14 56//14
f 34//15 35//15 50//15
f 39//16 40//16 55//16
f 54//1 55//1 70//1
f 53//2 54//2 69//2
f 63//3 64//3 79//3
f 62//4 63//4 78//4
f 61//5 62//5 77//5
f 60//6 61//6 76//6
f 49//7 50//7 65//7
f 59//8 60//8 75//8
f 58//9 59//9 74//9
f 64//10 49//10 80//10
f 52//11 53//11 68//11
f 57//12 58//12 73//12
f 51//13 52//13 67//13
f 56//14 57//14 72//14
f 50//15 51//15 66//15
f 55//16 56//16 71//16
f 70//1 71//1 86//1
f 69//2 70//2 85//2
f 79//3 80//3 95//3
f 78//4 79//4 94//4
f 77//5 78//5 93//5
f 76//6 77//6 92//6
f 65//7 66//7 81//7
f 61//5 45//5 46//5
f 74//9 75//9 90//9
f 80//10 65//10 96//10
f 68//11 69//11 84//11
f 73//12 74//12 89//12
f 67//13 68//13 83//13
f 72//14 73//14 88//14
f 66//15 67//15 82//15
f 71//16 72//16 87//16
f 86//1 87//1 102//1
f 85//2 86//2 101//2
f 95//3 96//3 111//3
f 94//4 95//4 110//4
f 93//5 94//5 109//5
f 92//6 93//6 108//6
f 81//7 82//7 97//7
f 91//8 92//8 107//8
f 90//9 91//9 106//9
f 96//10 81//10 112//10
f 84//11 85//11 100//11
f 89//12 90//12 105//12
f 83//13 84//13 99//13
f 88//14 89//14 104//14
f 82//15 83//15 98//15
f 87//16 88//16 103//16
